<svg width="24" height="25" viewBox="0 0 24 25" fill="none" xmlns="http://www.w3.org/2000/svg">
<path d="M18.8209 17.2878L22.2479 20.8119C22.6568 21.2314 23.067 21.6497 23.4748 22.0703C23.8038 22.3903 23.9925 22.8267 23.9998 23.2844C24.0071 23.7422 23.8323 24.1843 23.5136 24.5145C23.3545 24.6728 23.1649 24.7974 22.9561 24.8808C22.7473 24.9642 22.5236 25.0046 22.2987 24.9996C22.0737 24.9946 21.8522 24.9443 21.6473 24.8517C21.4424 24.7592 21.2585 24.6263 21.1067 24.461C19.5668 22.9006 18.0293 21.3371 16.4939 19.7706C16.4747 19.7405 16.4489 19.7151 16.4186 19.696C16.3883 19.677 16.3541 19.6649 16.3185 19.6606C16.2829 19.6562 16.2468 19.6598 16.2128 19.6709C16.1787 19.6821 16.1476 19.7006 16.1216 19.7251C14.1829 20.9725 11.8798 21.5366 9.58087 21.327C7.28193 21.1174 5.12016 20.1462 3.4416 18.569C1.65179 16.9443 0.486482 14.75 0.145946 12.3632C-0.0931331 10.9432 -0.0380226 9.48967 0.307912 8.09172C0.653846 6.69377 1.28332 5.38095 2.15762 4.23388C3.0257 3.04808 4.13838 2.06057 5.42114 1.3375C6.70389 0.614429 8.1271 0.172482 9.59544 0.0412677C11.0638 -0.0899464 12.5433 0.0925992 13.935 0.576677C15.3267 1.06076 16.5984 1.8352 17.6648 2.84812C19.6003 4.62777 20.7902 7.06828 20.997 9.68258C21.2539 12.1866 20.6081 14.7 19.175 16.774C19.0596 16.9343 18.9454 17.1059 18.8209 17.2878ZM18.1983 10.6796C18.1706 9.17548 17.6971 7.71305 16.8373 6.47581C15.9774 5.23857 14.7694 4.28166 13.365 3.72516C11.9606 3.16867 10.4223 3.03739 8.94318 3.34781C7.46406 3.65823 6.11001 4.3965 5.05101 5.46999C3.99202 6.54347 3.27523 7.90433 2.99063 9.38176C2.70604 10.8592 2.86632 12.3874 3.45133 13.7745C4.03634 15.1616 5.02003 16.3458 6.27893 17.1786C7.53784 18.0113 9.01588 18.4555 10.5275 18.4553C12.58 18.4349 14.5404 17.6049 15.9786 16.1475C17.4167 14.6901 18.2151 12.7244 18.1983 10.6818V10.6796Z" fill="#797B7E"/>
</svg>
